<svg width="36" height="36" viewBox="0 0 36 36" fill="none" xmlns="http://www.w3.org/2000/svg">
<path d="M34.8256 12.1477L31.5845 8.90656C31.323 8.64859 30.9744 8.49796 30.6073 8.48436C30.2402 8.47077 29.8814 8.5952 29.6015 8.83311C29.1695 9.20088 28.615 9.3929 28.048 9.37114C27.4811 9.34937 26.943 9.11541 26.5404 8.7156C26.1408 8.31304 25.907 7.77509 25.8852 7.20829C25.8634 6.6415 26.0553 6.0872 26.4229 5.65518C26.6608 5.37532 26.7852 5.01648 26.7716 4.64941C26.758 4.28234 26.6074 3.93368 26.3494 3.67219L23.1054 0.427422C22.8312 0.153798 22.4597 0.00012207 22.0724 0.00012207C21.6851 0.00012207 21.3136 0.153798 21.0394 0.427422L15.8726 5.59349C15.5536 5.91363 15.3131 6.30326 15.1698 6.73187C15.1418 6.81428 15.0953 6.88915 15.0338 6.95067C14.9723 7.01219 14.8974 7.05871 14.815 7.08661C14.3862 7.22991 13.9965 7.47076 13.6766 7.79021L0.4273 21.0395C0.153676 21.3137 0 21.6852 0 22.0725C0 22.4599 0.153676 22.8314 0.4273 23.1055L3.67206 26.3466C3.93356 26.6046 4.28221 26.7552 4.64928 26.7688C5.01636 26.7824 5.3752 26.658 5.65506 26.4201C6.08609 26.0493 6.6413 25.8552 7.20944 25.8765C7.77758 25.8978 8.31667 26.1331 8.71869 26.5351C9.1207 26.9371 9.35595 27.4762 9.37728 28.0444C9.39861 28.6125 9.20446 29.1677 8.83372 29.5987C8.5958 29.8786 8.47138 30.2374 8.48497 30.6045C8.49857 30.9716 8.6492 31.3202 8.90717 31.5817L12.1483 34.8228C12.4224 35.0965 12.7939 35.2501 13.1813 35.2501C13.5686 35.2501 13.9401 35.0965 14.2142 34.8228L27.4636 21.5735C27.7828 21.2537 28.0237 20.8643 28.1672 20.4358C28.195 20.3532 28.2415 20.278 28.3032 20.2164C28.3648 20.1547 28.44 20.1081 28.5226 20.0804C28.951 19.937 29.3404 19.6965 29.6603 19.3775L34.8264 14.2107C35.099 13.9366 35.252 13.5656 35.2518 13.179C35.2517 12.7924 35.0984 12.4216 34.8256 12.1477ZM18.0532 9.97003C17.944 10.0792 17.8145 10.1658 17.6719 10.2248C17.5293 10.2839 17.3765 10.3143 17.2222 10.3143C17.0678 10.3143 16.915 10.2839 16.7724 10.2248C16.6298 10.1658 16.5003 10.0792 16.3911 9.97003L15.5458 9.12469C15.3308 8.9032 15.2116 8.60601 15.2139 8.29733C15.2162 7.98866 15.3399 7.69329 15.5582 7.47507C15.7765 7.25685 16.0719 7.13329 16.3806 7.1311C16.6893 7.12891 16.9864 7.24827 17.2078 7.46338L18.0532 8.30799C18.1623 8.41711 18.2489 8.54667 18.308 8.68925C18.367 8.83184 18.3974 8.98467 18.3974 9.13901C18.3974 9.29335 18.367 9.44618 18.308 9.58877C18.2489 9.73135 18.1623 9.86091 18.0532 9.97003ZM21.2847 13.2016C21.0644 13.4218 20.7656 13.5455 20.4541 13.5455C20.1425 13.5455 19.8438 13.4218 19.6234 13.2016L18.8155 12.3937C18.7064 12.2846 18.6198 12.155 18.5608 12.0124C18.5017 11.8698 18.4713 11.717 18.4713 11.5627C18.4713 11.4083 18.5017 11.2555 18.5608 11.1129C18.6198 10.9703 18.7064 10.8408 18.8155 10.7316C19.0359 10.5112 19.3349 10.3874 19.6465 10.3874C19.8009 10.3874 19.9537 10.4178 20.0963 10.4769C20.2389 10.5359 20.3684 10.6225 20.4776 10.7316L21.2855 11.5395C21.395 11.6486 21.4819 11.7783 21.5412 11.9211C21.6006 12.0638 21.6311 12.2169 21.6312 12.3715C21.6313 12.5261 21.6008 12.6792 21.5416 12.822C21.4824 12.9648 21.3956 13.0946 21.2862 13.2038L21.2847 13.2016ZM24.5163 16.4331C24.4071 16.5423 24.2776 16.6289 24.135 16.6879C23.9924 16.747 23.8396 16.7774 23.6852 16.7774C23.5309 16.7774 23.3781 16.747 23.2355 16.6879C23.0929 16.6289 22.9633 16.5423 22.8542 16.4331L22.0463 15.6252C21.8313 15.4038 21.7121 15.1066 21.7144 14.7979C21.7167 14.4892 21.8404 14.1938 22.0588 13.9756C22.2771 13.7574 22.5725 13.6338 22.8812 13.6316C23.1898 13.6295 23.487 13.7488 23.7084 13.9639L24.5163 14.7718C24.6261 14.8807 24.7133 15.0103 24.773 15.153C24.8326 15.2958 24.8635 15.4489 24.8638 15.6035C24.8642 15.7582 24.834 15.9115 24.775 16.0545C24.7159 16.1974 24.6293 16.3274 24.5199 16.4368L24.5163 16.4331ZM27.7794 19.7043C27.6703 19.8135 27.5407 19.9001 27.3981 19.9591C27.2555 20.0182 27.1027 20.0486 26.9484 20.0486C26.794 20.0486 26.6412 20.0182 26.4986 19.9591C26.356 19.9001 26.2265 19.8135 26.1173 19.7043L25.2771 18.8597C25.1657 18.7509 25.077 18.6211 25.0162 18.4777C24.9554 18.3343 24.9237 18.1803 24.923 18.0245C24.9222 17.8688 24.9524 17.7144 25.0119 17.5705C25.0713 17.4265 25.1588 17.2958 25.2691 17.186C25.3795 17.0761 25.5107 16.9893 25.6549 16.9305C25.7992 16.8718 25.9536 16.8423 26.1094 16.8438C26.2651 16.8453 26.419 16.8778 26.5621 16.9393C26.7052 17.0008 26.8346 17.0901 26.9429 17.2021L27.7838 18.046C27.8929 18.1551 27.9794 18.2847 28.0384 18.4273C28.0974 18.57 28.1278 18.7228 28.1277 18.8771C28.1276 19.0315 28.0972 19.1843 28.038 19.3268C27.9789 19.4694 27.8923 19.5989 27.7831 19.708L27.7794 19.7043Z" fill="#2B293D"/>
</svg>
