<svg width="32" height="32" viewBox="0 0 32 32" fill="none" xmlns="http://www.w3.org/2000/svg">
<g clip-path="url(#clip0_697_3731)">
<path d="M23.1968 19.1306C22.8075 18.9306 20.8682 17.9806 20.5075 17.852C20.1468 17.7163 19.8825 17.652 19.6218 18.052C19.3575 18.4485 18.6075 19.3306 18.3718 19.5985C18.1432 19.8627 17.911 19.8949 17.5218 19.6985C15.2075 18.5413 13.6896 17.6342 12.1646 15.0163C11.761 14.3199 12.5682 14.3699 13.3218 12.8663C13.4503 12.602 13.386 12.377 13.286 12.177C13.186 11.977 12.4003 10.0413 12.0718 9.25203C11.7539 8.48418 11.4253 8.59132 11.186 8.57703C10.9575 8.56275 10.6968 8.56275 10.4325 8.56275C10.1682 8.56275 9.74319 8.66275 9.38247 9.05204C9.02176 9.44846 8.0039 10.402 8.0039 12.3377C8.0039 14.2735 9.41462 16.1485 9.60747 16.4127C9.80747 16.677 12.3825 20.6485 16.336 22.3592C18.836 23.4377 19.8146 23.5306 21.0646 23.3449C21.8253 23.2306 23.3932 22.3949 23.7182 21.4699C24.0432 20.5485 24.0432 19.7592 23.9468 19.5949C23.8503 19.4199 23.586 19.3199 23.1968 19.1306Z" fill="black" fill-opacity="0.45"/>
<path d="M30.7573 9.8C29.9502 7.88214 28.7931 6.16071 27.3181 4.68214C25.8534 3.21213 24.1146 2.04365 22.2002 1.24286C20.2359 0.417857 18.1502 0 16.0002 0H15.9288C13.7645 0.0107143 11.6681 0.439286 9.69663 1.28214C7.79862 2.09115 6.07614 3.2617 4.6252 4.72857C3.16449 6.20357 2.01806 7.91786 1.2252 9.82857C0.403774 11.8071 -0.0105117 13.9107 0.000202617 16.075C0.0123214 18.5553 0.599102 20.9989 1.71449 23.2143V28.6429C1.71449 29.0786 1.88757 29.4964 2.19567 29.8045C2.50377 30.1126 2.92163 30.2857 3.35735 30.2857H8.78949C11.0048 31.4011 13.4485 31.9879 15.9288 32H16.0038C18.1431 32 20.2181 31.5857 22.1716 30.775C24.0764 29.9838 25.8087 28.8289 27.2716 27.375C28.7466 25.9143 29.9073 24.2071 30.7181 22.3036C31.5609 20.3321 31.9895 18.2357 32.0002 16.0714C32.0109 13.8964 31.5895 11.7857 30.7573 9.8ZM25.3609 25.4429C22.8573 27.9214 19.5359 29.2857 16.0002 29.2857H15.9395C13.7859 29.275 11.6466 28.7393 9.75735 27.7321L9.45735 27.5714H4.42877V22.5429L4.26806 22.2429C3.26092 20.3536 2.7252 18.2143 2.71449 16.0607C2.7002 12.5 4.06092 9.15714 6.55735 6.63929C9.0502 4.12143 12.3823 2.72857 15.9431 2.71429H16.0038C17.7895 2.71429 19.5216 3.06071 21.1538 3.74643C22.7466 4.41429 24.1752 5.375 25.4038 6.60357C26.6288 7.82857 27.5931 9.26071 28.2609 10.8536C28.9538 12.5036 29.3002 14.2536 29.2931 16.0607C29.2716 19.6179 27.8752 22.95 25.3609 25.4429Z" fill="black" fill-opacity="0.45"/>
</g>
<defs>
<clipPath id="clip0_697_3731">
<rect width="32" height="32" fill="white"/>
</clipPath>
</defs>
</svg>
